<?xml version="1.0" encoding="UTF-8" standalone="no"?>
<svg
   xmlns:dc="http://purl.org/dc/elements/1.1/"
   xmlns:cc="http://creativecommons.org/ns#"
   xmlns:rdf="http://www.w3.org/1999/02/22-rdf-syntax-ns#"
   xmlns:svg="http://www.w3.org/2000/svg"
   xmlns="http://www.w3.org/2000/svg"
   viewBox="0 0 633.33331 196"
   height="196"
   width="633.33331"
   xml:space="preserve"
   id="svg2"
   version="1.1"><metadata
     id="metadata8"><rdf:RDF><cc:Work
         rdf:about=""><dc:format>image/svg+xml</dc:format><dc:type
           rdf:resource="http://purl.org/dc/dcmitype/StillImage" /></cc:Work></rdf:RDF></metadata><defs
     id="defs6" /><g
     transform="matrix(1.3333333,0,0,-1.3333333,0,196)"
     id="g10"><g
       transform="scale(0.1)"
       id="g12"><path
         id="path14"
         style="fill:#c3342e;fill-opacity:1;fill-rule:evenodd;stroke:none"
         d="m 2686.33,1063.98 -185.47,-341.992 -76.02,129.492 -183,-336.992 h 766.99 l -322.5,549.492 m -232.97,41.53 -358.01,-591.022 h -191.01 l 288.51,501.992 -54.02,89.03 -358.48,-591.022 h -191.01 l 549.49,955.512 159.02,-271.02 155.51,271.02 203.48,-346.48 -101.49,-185 -101.99,166.99" /><path
         id="path16"
         style="fill:#060606;fill-opacity:1;fill-rule:nonzero;stroke:none"
         d="M 263.789,272.809 151.289,7.5 H 113.16 L 0.0390625,272.809 H 36.1289 L 133.48,43.1211 228.16,272.809 Z M 429.531,95.1602 h -131.25 c 0,-39.9297 25.16,-59.8516 75.469,-59.8516 17.191,0 34.371,1.8828 51.559,5.6328 V 13.1211 C 408.121,9.37891 387.191,7.5 362.5,7.5 c -65.621,0 -98.441,33.1992 -98.441,99.691 0,63.43 31.101,95.149 93.281,95.149 59.57,0 83.64,-35.738 72.191,-107.1798 z M 298.281,123.59 h 99.84 c 1.758,34.14 -13.711,51.25 -46.402,51.25 -33.36,0 -51.168,-17.11 -53.438,-51.25 z" /><path
         id="path18"
         style="fill:#060606;fill-opacity:1;fill-rule:nonzero;stroke:none"
         d="m 483.32,16.7188 v 29.6914 c 21.641,-7.4297 44.141,-11.1016 67.5,-11.1016 31.02,0 46.559,9.2617 46.559,27.8125 0,17.3906 -10.149,26.0977 -30.469,26.0977 h -31.558 c -40.864,0 -61.25,19.1402 -61.25,57.5002 0,37.07 27.027,55.621 81.097,55.621 23.199,0 45.66,-3.078 67.34,-9.219 v -29.68 c -21.68,7.379 -44.141,11.09 -67.34,11.09 -32.429,0 -48.597,-9.301 -48.597,-27.812 0,-17.418 9.57,-26.098 28.75,-26.098 h 31.558 c 43.211,0 64.852,-19.172 64.852,-57.4999 C 631.762,26.0195 604.77,7.5 550.82,7.5 c -23.359,0 -45.859,3.0508 -67.5,9.2188 z" /><path
         id="path20"
         style="fill:#060606;fill-opacity:1;fill-rule:nonzero;stroke:none"
         d="M 826.949,13.1211 C 810.898,9.37891 793.59,7.5 775.078,7.5 c -70.547,0 -105.777,33.6719 -105.777,101.09 0,62.5 35.23,93.75 105.777,93.75 18.512,0 35.82,-1.871 51.871,-5.621 V 168.91 c -16.051,3.75 -32.148,5.621 -48.277,5.621 -50.121,0 -75.152,-21.992 -75.152,-65.941 0,-48.8595 25.031,-73.2814 75.152,-73.2814 16.129,0 32.226,1.8828 48.277,5.6328 z" /><path
         id="path22"
         style="fill:#060606;fill-opacity:1;fill-rule:nonzero;stroke:none"
         d="m 952.109,35.3086 c 38.942,0 58.441,23.4414 58.441,70.3124 0,45.938 -19.499,68.91 -58.441,68.91 -39.058,0 -58.589,-22.972 -58.589,-68.91 0,-46.871 19.531,-70.3124 58.589,-70.3124 z M 859.301,104.84 c 0,65 30.929,97.5 92.808,97.5 61.761,0 92.661,-32.5 92.661,-97.5 0,-64.8009 -30.9,-97.17984 -92.661,-97.17984 -61.679,0 -92.621,32.37894 -92.808,97.17984 z" /><path
         id="path24"
         style="fill:#060606;fill-opacity:1;fill-rule:nonzero;stroke:none"
         d="m 1091.17,7.5 v 194.84 h 23.28 l 6.1,-24.84 c 23.63,16.559 47.38,24.84 71.25,24.84 44.88,0 67.34,-24.18 67.34,-72.5 V 7.5 h -34.37 v 122.809 c 0,28.953 -14.46,43.441 -43.29,43.441 -19.6,0 -38.24,-8.238 -55.93,-24.691 V 7.5 Z" /><path
         id="path26"
         style="fill:#060606;fill-opacity:1;fill-rule:nonzero;stroke:none"
         d="M 1552.81,13.1211 C 1536.76,9.37891 1519.45,7.5 1500.94,7.5 c -70.55,0 -105.78,33.6719 -105.78,101.09 0,62.5 35.23,93.75 105.78,93.75 18.51,0 35.82,-1.871 51.87,-5.621 V 168.91 c -16.05,3.75 -32.15,5.621 -48.28,5.621 -50.12,0 -75.15,-21.992 -75.15,-65.941 0,-48.8595 25.03,-73.2814 75.15,-73.2814 16.13,0 32.23,1.8828 48.28,5.6328 z" /><path
         id="path28"
         style="fill:#060606;fill-opacity:1;fill-rule:nonzero;stroke:none"
         d="m 1677.97,35.3086 c 38.94,0 58.44,23.4414 58.44,70.3124 0,45.938 -19.5,68.91 -58.44,68.91 -39.06,0 -58.59,-22.972 -58.59,-68.91 0,-46.871 19.53,-70.3124 58.59,-70.3124 z m -92.81,69.5314 c 0,65 30.93,97.5 92.81,97.5 61.76,0 92.65,-32.5 92.65,-97.5 0,-64.8009 -30.89,-97.17984 -92.65,-97.17984 -61.68,0 -92.62,32.37894 -92.81,97.17984 z" /><path
         id="path30"
         style="fill:#060606;fill-opacity:1;fill-rule:nonzero;stroke:none"
         d="m 1817.03,7.5 v 194.84 h 23.28 l 6.1,-24.84 c 23.63,16.559 47.38,24.84 71.25,24.84 44.88,0 67.34,-24.18 67.34,-72.5 V 7.5 h -34.38 v 122.809 c 0,28.953 -14.45,43.441 -43.28,43.441 -19.61,0 -38.24,-8.238 -55.93,-24.691 V 7.5 Z" /><path
         id="path32"
         style="fill:#060606;fill-opacity:1;fill-rule:nonzero;stroke:none"
         d="m 2040.43,16.7188 v 29.6914 c 21.64,-7.4297 44.14,-11.1016 67.5,-11.1016 31.02,0 46.56,9.2617 46.56,27.8125 0,17.3906 -10.15,26.0977 -30.47,26.0977 h -31.56 c -40.86,0 -61.25,19.1402 -61.25,57.5002 0,37.07 27.03,55.621 81.09,55.621 23.21,0 45.67,-3.078 67.35,-9.219 v -29.68 c -21.68,7.379 -44.14,11.09 -67.35,11.09 -32.42,0 -48.59,-9.301 -48.59,-27.812 0,-17.418 9.57,-26.098 28.75,-26.098 h 31.56 c 43.21,0 64.85,-19.172 64.85,-57.4999 0,-37.1016 -26.99,-55.6211 -80.94,-55.6211 -23.36,0 -45.86,3.0508 -67.5,9.2188 z" /><path
         id="path34"
         style="fill:#060606;fill-opacity:1;fill-rule:nonzero;stroke:none"
         d="m 2235.62,233.91 h 21.57 l 7.34,-31.57 h 45.31 V 174.531 H 2270 V 62.6602 c 0,-18.25 7.85,-27.3516 23.59,-27.3516 h 16.25 V 7.5 h -25.15 c -32.74,0 -49.07,17.5 -49.07,52.5 z" /><path
         id="path36"
         style="fill:#060606;fill-opacity:1;fill-rule:nonzero;stroke:none"
         d="m 2356.6,7.5 v 194.84 h 23.28 l 6.1,-24.84 c 17.07,16.559 37.57,24.84 61.56,24.84 v -28.59 c -23.24,0 -42.11,-8.238 -56.56,-24.691 V 7.5 Z" /><path
         id="path38"
         style="fill:#060606;fill-opacity:1;fill-rule:nonzero;stroke:none"
         d="M 2650,202.34 V 7.5 h -23.59 l -5.94,24.8398 C 2596.8,15.7813 2573.05,7.5 2549.22,7.5 c -44.81,0 -67.19,24.1406 -67.19,72.5 v 122.34 h 34.38 V 79.5313 c 0,-28.9805 14.29,-43.4415 42.97,-43.4415 19.68,0 38.43,8.211 56.24,24.6915 V 202.34 Z" /><path
         id="path40"
         style="fill:#060606;fill-opacity:1;fill-rule:nonzero;stroke:none"
         d="M 2853.87,13.1211 C 2837.81,9.37891 2820.51,7.5 2801.99,7.5 c -70.54,0 -105.78,33.6719 -105.78,101.09 0,62.5 35.24,93.75 105.78,93.75 18.52,0 35.82,-1.871 51.88,-5.621 V 168.91 c -16.06,3.75 -32.15,5.621 -48.28,5.621 -50.12,0 -75.16,-21.992 -75.16,-65.941 0,-48.8595 25.04,-73.2814 75.16,-73.2814 16.13,0 32.22,1.8828 48.28,5.6328 z" /><path
         id="path42"
         style="fill:#060606;fill-opacity:1;fill-rule:nonzero;stroke:none"
         d="m 2895.43,233.91 h 21.56 l 7.35,-31.57 h 45.31 V 174.531 H 2929.8 V 62.6602 c 0,-18.25 7.86,-27.3516 23.6,-27.3516 h 16.25 V 7.5 h -25.16 c -32.73,0 -49.06,17.5 -49.06,52.5 z" /><path
         id="path44"
         style="fill:#060606;fill-opacity:1;fill-rule:nonzero;stroke:none"
         d="m 3050.78,245 h -34.3711 v 27.8086 h 34.3711 z m 0,-237.5 h -34.3711 v 194.84 h 34.3711 z" /><path
         id="path46"
         style="fill:#060606;fill-opacity:1;fill-rule:nonzero;stroke:none"
         d="m 3189.8,35.3086 c 38.95,0 58.44,23.4414 58.44,70.3124 0,45.938 -19.49,68.91 -58.44,68.91 -39.06,0 -58.59,-22.972 -58.59,-68.91 0,-46.871 19.53,-70.3124 58.59,-70.3124 z m -92.81,69.5314 c 0,65 30.94,97.5 92.81,97.5 61.76,0 92.66,-32.5 92.66,-97.5 0,-64.8009 -30.9,-97.17984 -92.66,-97.17984 -61.68,0 -92.61,32.37894 -92.81,97.17984 z" /><path
         id="path48"
         style="fill:#060606;fill-opacity:1;fill-rule:nonzero;stroke:none"
         d="m 3328.87,7.5 v 194.84 h 23.28 l 6.09,-24.84 c 23.64,16.559 47.38,24.84 71.25,24.84 44.89,0 67.35,-24.18 67.35,-72.5 V 7.5 h -34.38 v 122.809 c 0,28.953 -14.45,43.441 -43.28,43.441 -19.61,0 -38.24,-8.238 -55.94,-24.691 V 7.5 Z" /><path
         id="path50"
         style="fill:#060606;fill-opacity:1;fill-rule:nonzero;stroke:none"
         d="m 3642.07,7.5 h 34.3789 V 272.809 H 3642.07 Z" /><path
         id="path52"
         style="fill:#060606;fill-opacity:1;fill-rule:nonzero;stroke:none"
         d="m 3766.25,245 h -34.3711 v 27.8086 h 34.3711 z m 0,-237.5 h -34.3711 v 194.84 h 34.3711 z" /><path
         id="path54"
         style="fill:#060606;fill-opacity:1;fill-rule:nonzero;stroke:none"
         d="m 3821.68,7.5 v 194.84 h 23.28 l 5.63,-24.531 c 22.38,16.332 44.61,24.531 66.71,24.531 24.46,0 41.8,-8.899 52.04,-26.719 24.88,17.82 48.2,26.719 70,26.719 41.01,0 61.56,-24.68 61.56,-74.059 V 7.5 h -34.22 v 122.66 c 0,29.059 -12.27,43.59 -36.72,43.59 -18.36,0 -35.47,-8.398 -51.41,-25.16 V 7.5 h -34.37 v 122.031 c 0,29.449 -12.15,44.219 -36.41,44.219 -19.29,0 -36.52,-8.398 -51.72,-25.16 V 7.5 Z" /><path
         id="path56"
         style="fill:#060606;fill-opacity:1;fill-rule:nonzero;stroke:none"
         d="m 4190.78,245 h -34.3711 v 27.8086 h 34.3711 z m 0,-237.5 h -34.3711 v 194.84 h 34.3711 z" /><path
         id="path58"
         style="fill:#060606;fill-opacity:1;fill-rule:nonzero;stroke:none"
         d="m 4246.21,233.91 h 21.56 l 7.35,-31.57 h 45.31 v -27.809 h -39.84 V 62.6602 c 0,-18.25 7.85,-27.3516 23.59,-27.3516 h 16.25 V 7.5 h -25.16 c -32.73,0 -49.06,17.5 -49.06,52.5 z" /><path
         id="path60"
         style="fill:#060606;fill-opacity:1;fill-rule:nonzero;stroke:none"
         d="m 4523.44,95.1602 h -131.25 c 0,-39.9297 25.15,-59.8516 75.47,-59.8516 17.18,0 34.37,1.8828 51.56,5.6328 V 13.1211 C 4502.03,9.37891 4481.09,7.5 4456.41,7.5 c -65.63,0 -98.44,33.1992 -98.44,99.691 0,63.43 31.09,95.149 93.28,95.149 59.57,0 83.63,-35.738 72.19,-107.1798 z M 4392.19,123.59 h 99.84 c 1.76,34.14 -13.71,51.25 -46.41,51.25 -33.35,0 -51.17,-17.11 -53.43,-51.25 z" /><path
         id="path62"
         style="fill:#060606;fill-opacity:1;fill-rule:nonzero;stroke:none"
         d="m 4708.01,162.66 c -13.87,6.641 -29.69,10 -47.5,10 -39.18,0 -58.75,-20.859 -58.75,-62.5 0,-49.3787 19.57,-74.0702 58.75,-74.0702 17.81,0 33.63,2.3907 47.5,7.1915 z M 4742.38,19.2188 C 4718.71,11.4102 4689.61,7.5 4655.04,7.5 c -58.05,0 -87.03,33.75 -87.03,101.25 0,62.379 30.78,93.59 92.34,93.59 16.88,0 32.74,-3.078 47.66,-9.219 v 79.688 h 34.37 z" /></g></g></svg>